:SAMPLES-PER-SECOND 30
:FRAME-RANGE 1-2091
:FULLY-SPECIFIED
:DEGREES
197
root  -24.138 38.365 24.2014 2.00577 -27.8684 -0.506705
RightUpLeg  5.9077 0.549117 -10.1869
RightLeg  24.2042 1.07278 0.314598
RightFoot  -17.4481 0.795711 17.0341
RightToes  5.38607e-012 1.2921e-014 -6.02303e-014
Spine  -3.25502 -4.06918 -0.568536
Spine1  10.0951 -3.65517 -5.07954
HEad  34.9959 2.72454 -3.41775
LeftShoulder1  0.894209 0.295668 -23.7077
LeftArm  -1.9378 8.43407 -45.426
LeftForeArm  37.0031 7.77889 -13.4598
LeftHand  -0.0108075 6.45087 2.34828
RightShoulder  0.881526 -0.657641 27.1401
RightArm  -9.19133 -6.67559 43.9484
RightForeArm  -21.5609 36.3932 9.42437
RightHand  0.0372999 -2.18488 1.81731
LeftUpLeg  -25.4198 4.95427 -0.159149
LeftLeg  19.0321 24.9584 8.78042
LeftFoot  2.16091 -0.171382 1.33736
LeftToes  -7.20997e-011 3.75522e-011 -2.80735e-011
198
root  -24.1674 38.2576 25.3687 2.02316 -26.1067 0.658382
RightUpLeg  2.34301 1.97603 -11.9245
RightLeg  33.509 1.78927 1.03634
RightFoot  -15.0075 0.581534 21.1548
RightToes  5.38607e-012 1.2921e-014 -6.02303e-014
Spine  -4.30329 -3.63879 -3.15813
Spine1  9.87123 -3.50858 -3.89302
HEad  36.2036 1.70148 -2.71947
LeftShoulder1  0.964142 -0.0107327 -23.0381
LeftArm  -2.25845 7.4858 -46.5623
LeftForeArm  37.9216 7.75565 -13.4265
LeftHand  -0.0178733 6.0309 2.24238
RightShoulder  0.803688 -0.918735 27.5044
RightArm  -11.5737 -7.34704 44.1944
RightForeArm  -23.5794 34.0508 8.81282
RightHand  0.0188273 -2.5982 1.40599
LeftUpLeg  -25.6542 4.77342 -2.43534
LeftLeg  20.8006 22.8287 8.822
LeftFoot  2.24608 -0.393296 3.18654
LeftToes  -7.20997e-011 3.75522e-011 -2.80735e-011
199
root  -24.0981 38.3469 26.5914 1.78826 -23.6078 1.87743
RightUpLeg  -2.23967 1.53844 -13.8008
RightLeg  43.9941 0.810269 0.543085
RightFoot  -7.593 -0.732788 20.5937
RightToes  5.38607e-012 1.2921e-014 -6.02303e-014
Spine  -5.06948 -3.71717 -5.43379
Spine1  9.63139 -3.8037 -2.39736
HEad  36.3818 1.55117 -2.51783
LeftShoulder1  0.99194 -0.170371 -22.4722
LeftArm  -2.48759 6.70705 -47.6084
LeftForeArm  38.0542 7.7699 -13.1763
LeftHand  -0.0229995 5.72162 2.05788
RightShoulder  0.816453 -0.885257 27.5736
RightArm  -14.1927 -8.29015 43.8972
RightForeArm  -24.0497 32.973 8.52447
RightHand  -6.17207e-005 -3.05177 0.850453
LeftUpLeg  -24.2047 1.6648 -4.66033
LeftLeg  20.7736 23.0944 9.27879
LeftFoot  1.26126 -0.407729 3.62227
LeftToes  -7.20997e-011 3.75522e-011 -2.80735e-011
200
root  -24.066 38.5034 27.7669 1.47727 -21.4836 2.58841
RightUpLeg  -7.96238 2.51927 -13.6636
RightLeg  54.8427 -1.87735 -3.27067
RightFoot  2.64369 -1.43927 11.8438
RightToes  5.38607e-012 1.2921e-014 -6.02303e-014
Spine  -5.4629 -4.00564 -7.27
Spine1  9.52104 -4.2753 -0.887321
HEad  35.5733 2.2846 -2.37531
LeftShoulder1  1.02052 -0.289548 -22.3126
LeftArm  -1.72246 6.05418 -47.6536
LeftForeArm  36.6549 6.98637 -13.1555
LeftHand  -0.0256324 5.55256 1.85471
RightShoulder  0.81812 -0.888565 27.6935
RightArm  -16.1043 -7.99292 43.8913
RightForeArm  -25.1991 31.897 8.27365
RightHand  -0.0286909 -3.80957 -0.612555
LeftUpLeg  -22.0208 -0.257498 -6.34117
LeftLeg  20.1083 22.8632 9.06836
LeftFoot  -0.19102 -0.356612 3.66419
LeftToes  -7.20997e-011 3.75522e-011 -2.80735e-011
201
root  -24.0451 38.5749 28.8178 0.901905 -19.5791 2.88947
RightUpLeg  -12.2993 4.28194 -12.8852
RightLeg  62.3432 -1.7505 -4.17012
RightFoot  7.60868 -0.871972 5.53384
RightToes  5.38607e-012 1.2921e-014 -6.02303e-014
Spine  -5.16115 -4.25808 -8.49992
Spine1  9.38715 -4.67655 -0.499828
HEad  35.2129 3.49773 -2.43258
LeftShoulder1  1.13584 -0.730593 -22.0554
LeftArm  -1.2358 5.23087 -47.4502
LeftForeArm  36.2974 4.69282 -13.1798
LeftHand  -0.0282988 5.29353 2.42175
RightShoulder  0.808214 -0.912555 27.6122
RightArm  -16.4263 -7.30438 43.8539
RightForeArm  -27.2949 30.8772 8.0827
RightHand  -0.0340518 -4.54765 -1.43333
LeftUpLeg  -19.8651 -0.932958 -7.59603
LeftLeg  20.2084 21.8925 8.81204
LeftFoot  -2.07702 -0.288691 3.71695
LeftToes  -7.20997e-011 3.75522e-011 -2.80735e-011
202
root  -24.0598 38.5686 29.775 0.439454 -17.6878 3.12268
RightUpLeg  -15.4392 6.93205 -12.2604
RightLeg  66.9031 0.155028 -0.263915
RightFoot  2.76915 -0.899751 7.41292
RightToes  5.38607e-012 1.2921e-014 -6.02303e-014
Spine  -4.95598 -4.50916 -9.77911
Spine1  9.54764 -5.11405 -0.484777
HEad  35.2751 4.48923 -2.69506
LeftShoulder1  1.22409 -1.10608 -21.6378
LeftArm  -1.12086 3.91853 -47.4464
LeftForeArm  36.3298 2.72075 -13.0437
LeftHand  -0.0264147 5.38403 2.87012
RightShoulder  0.738222 -1.10376 27.3252
RightArm  -17.7415 -7.02947 44.301
RightForeArm  -28.0869 30.6952 8.06549
RightHand  -0.024958 -5.52617 -2.44533
LeftUpLeg  -18.1727 -1.06977 -8.65253
LeftLeg  20.8784 20.266 8.51494
LeftFoot  -4.09184 -0.227931 3.98648
LeftToes  -7.20997e-011 3.75522e-011 -2.80735e-011
203
root  -24.054 38.6254 30.7804 0.0951521 -15.812 3.06823
RightUpLeg  -18.2532 9.51599 -11.1796
RightLeg  68.5941 1.26672 2.86323
RightFoot  0.248962 -0.692637 6.83286
RightToes  5.38607e-012 1.2921e-014 -6.02303e-014
Spine  -4.8575 -4.75432 -10.5119
Spine1  9.50629 -5.49011 -0.215602
HEad  35.3039 5.26291 -2.91915
LeftShoulder1  1.29857 -1.42443 -21.3277
LeftArm  -0.654842 2.16394 -47.3324
LeftForeArm  36.2884 0.872314 -12.9846
LeftHand  -0.031368 5.1441 3.08244
RightShoulder  0.724392 -1.12919 27.0651
RightArm  -19.7081 -7.198 44.3988
RightForeArm  -27.9306 31.2658 8.2132
RightHand  -0.0137375 -5.92066 -3.32367
LeftUpLeg  -15.9794 -0.710511 -9.36064
LeftLeg  20.5645 18.4683 7.62284
LeftFoot  -5.86431 -0.187939 4.66592
LeftToes  -7.20997e-011 3.75522e-011 -2.80735e-011
